# xmcd
#
# Track frame offsets:
#	150
#	28717
#	48632
#	64790
#	81112
#	94632
#	112742
#	127640
#
# Disc length: 1885 seconds
#
# Revision: 1
# Processed by: cddbd v1.5.1PL0 Copyright (c) Steve Scherf et al.
# Submitted via: CDex 1.50Beta5
#
DISCID=58075b08
DTITLE=加藤茶 - ズンドコ伝説
DYEAR=1900
DGENRE=Unclassifiable
TTITLE0=ズンドコ伝説(ADULT VERSION)
TTITLE1=RAP MIYO-CHAN
TTITLE2=「ヒゲ」のテーマ(EASY TOWN MIX)
TTITLE3=ドリフのツーレロ節
TTITLE4=ドリフのラバさん
TTITLE5=ドリフの早口ことば
TTITLE6=いい湯だな(ビバノン音頭)
TTITLE7=ドリフのズンドコ節
EXTD=
EXTT0=
EXTT1=
EXTT2=
EXTT3=
EXTT4=
EXTT5=
EXTT6=
EXTT7=
PLAYORDER=
